<?xml version="1.0" encoding="UTF-8"?>
<!DOCTYPE svg PUBLIC "-//W3C//DTD SVG 1.1//EN" "http://www.w3.org/Graphics/SVG/1.1/DTD/svg11.dtd">
<svg version="1.2" width="53mm" height="134.06mm" viewBox="0 0 5300 13406" preserveAspectRatio="xMidYMid" fill-rule="evenodd" stroke-width="28.222" stroke-linejoin="round" xmlns="http://www.w3.org/2000/svg" xmlns:ooo="http://xml.openoffice.org/svg/export" xmlns:xlink="http://www.w3.org/1999/xlink" xmlns:presentation="http://sun.com/xmlns/staroffice/presentation" xmlns:smil="http://www.w3.org/2001/SMIL20/" xmlns:anim="urn:oasis:names:tc:opendocument:xmlns:animation:1.0" xml:space="preserve">
 <defs class="ClipPathGroup">
  <clipPath id="presentation_clip_path" clipPathUnits="userSpaceOnUse">
   <rect x="0" y="0" width="5300" height="13406"/>
  </clipPath>
  <clipPath id="presentation_clip_path_shrink" clipPathUnits="userSpaceOnUse">
   <rect x="5" y="13" width="5290" height="13380"/>
  </clipPath>
 </defs>
 <defs class="TextShapeIndex">
  <g ooo:slide="id1" ooo:id-list="id3 id4 id5 id6 id7 id8 id9 id10 id11 id12 id13 id14 id15 id16 id17 id18 id19"/>
 </defs>
 <defs class="EmbeddedBulletChars">
  <g id="bullet-char-template-57356" transform="scale(0.00048828125,-0.00048828125)">
   <path d="M 580,1141 L 1163,571 580,0 -4,571 580,1141 Z"/>
  </g>
  <g id="bullet-char-template-57354" transform="scale(0.00048828125,-0.00048828125)">
   <path d="M 8,1128 L 1137,1128 1137,0 8,0 8,1128 Z"/>
  </g>
  <g id="bullet-char-template-10146" transform="scale(0.00048828125,-0.00048828125)">
   <path d="M 174,0 L 602,739 174,1481 1456,739 174,0 Z M 1358,739 L 309,1346 659,739 1358,739 Z"/>
  </g>
  <g id="bullet-char-template-10132" transform="scale(0.00048828125,-0.00048828125)">
   <path d="M 2015,739 L 1276,0 717,0 1260,543 174,543 174,936 1260,936 717,1481 1274,1481 2015,739 Z"/>
  </g>
  <g id="bullet-char-template-10007" transform="scale(0.00048828125,-0.00048828125)">
   <path d="M 0,-2 C -7,14 -16,27 -25,37 L 356,567 C 262,823 215,952 215,954 215,979 228,992 255,992 264,992 276,990 289,987 310,991 331,999 354,1012 L 381,999 492,748 772,1049 836,1024 860,1049 C 881,1039 901,1025 922,1006 886,937 835,863 770,784 769,783 710,716 594,584 L 774,223 C 774,196 753,168 711,139 L 727,119 C 717,90 699,76 672,76 641,76 570,178 457,381 L 164,-76 C 142,-110 111,-127 72,-127 30,-127 9,-110 8,-76 1,-67 -2,-52 -2,-32 -2,-23 -1,-13 0,-2 Z"/>
  </g>
  <g id="bullet-char-template-10004" transform="scale(0.00048828125,-0.00048828125)">
   <path d="M 285,-33 C 182,-33 111,30 74,156 52,228 41,333 41,471 41,549 55,616 82,672 116,743 169,778 240,778 293,778 328,747 346,684 L 369,508 C 377,444 397,411 428,410 L 1163,1116 C 1174,1127 1196,1133 1229,1133 1271,1133 1292,1118 1292,1087 L 1292,965 C 1292,929 1282,901 1262,881 L 442,47 C 390,-6 338,-33 285,-33 Z"/>
  </g>
  <g id="bullet-char-template-9679" transform="scale(0.00048828125,-0.00048828125)">
   <path d="M 813,0 C 632,0 489,54 383,161 276,268 223,411 223,592 223,773 276,916 383,1023 489,1130 632,1184 813,1184 992,1184 1136,1130 1245,1023 1353,916 1407,772 1407,592 1407,412 1353,268 1245,161 1136,54 992,0 813,0 Z"/>
  </g>
  <g id="bullet-char-template-8226" transform="scale(0.00048828125,-0.00048828125)">
   <path d="M 346,457 C 273,457 209,483 155,535 101,586 74,649 74,723 74,796 101,859 155,911 209,963 273,989 346,989 419,989 480,963 531,910 582,859 608,796 608,723 608,648 583,586 532,535 482,483 420,457 346,457 Z"/>
  </g>
  <g id="bullet-char-template-8211" transform="scale(0.00048828125,-0.00048828125)">
   <path d="M -4,459 L 1135,459 1135,606 -4,606 -4,459 Z"/>
  </g>
  <g id="bullet-char-template-61548" transform="scale(0.00048828125,-0.00048828125)">
   <path d="M 173,740 C 173,903 231,1043 346,1159 462,1274 601,1332 765,1332 928,1332 1067,1274 1183,1159 1299,1043 1357,903 1357,740 1357,577 1299,437 1183,322 1067,206 928,148 765,148 601,148 462,206 346,322 231,437 173,577 173,740 Z"/>
  </g>
 </defs>
 <defs class="TextEmbeddedBitmaps"/>
 <g>
  <g id="id2" class="Master_Slide">
   <g id="bg-id2" class="Background"/>
   <g id="bo-id2" class="BackgroundObjects"/>
  </g>
 </g>
 <g class="SlideGroup">
  <g>
   <g id="container-id1">
    <g id="id1" class="Slide" clip-path="url(#presentation_clip_path)">
     <g class="Page">
      <g class="com.sun.star.drawing.PolyPolygonShape">
       <g id="id3">
        <rect class="BoundingBox" stroke="none" fill="none" x="19" y="0" width="5282" height="13388"/>
        <path fill="rgb(230,230,230)" stroke="none" d="M 19,0 L 5300,0 5300,0 19,13387 19,13387 Z M 19,0 L 19,0 Z"/>
       </g>
      </g>
      <g class="com.sun.star.drawing.ClosedBezierShape">
       <g id="id4">
        <rect class="BoundingBox" stroke="none" fill="none" x="4042" y="10442" width="180" height="175"/>
        <path fill="rgb(230,230,230)" stroke="none" d="M 4131,0 C 4183,10616 4221,10616 4221,10577 4221,10529 4184,10481 4132,10442 4080,10442 4042,10442 4042,10481 4042,10529 4080,10577 4131,10616 Z M 4132,10616 C 4102,10582 4081,10582 4081,10558 4081,10529 4102,10500 4131,10476 4161,10476 4183,10476 4183,10500 4183,10529 4162,10558 4132,10582 Z M 4132,10582 L 4132,10582 Z"/>
       </g>
      </g>
      <g class="com.sun.star.drawing.ClosedBezierShape">
       <g id="id5">
        <rect class="BoundingBox" stroke="none" fill="none" x="4258" y="10443" width="148" height="175"/>
        <path fill="rgb(230,230,230)" stroke="none" d="M 4331,0 C 4377,10617 4405,10617 4405,10591 L 4405,10541 C 4405,10463 4397,10452 4387,10444 4376,10444 4368,10444 4368,10452 L 4368,10463 C 4368,10542 4354,10569 4332,10583 4309,10583 4295,10583 4295,10568 L 4295,10541 C 4295,10463 4287,10452 4277,10444 4267,10444 4258,10444 4258,10452 L 4258,10463 C 4258,10542 4286,10591 4331,10617 Z M 4331,10617 L 4331,10617 Z"/>
       </g>
      </g>
      <g class="com.sun.star.drawing.ClosedBezierShape">
       <g id="id6">
        <rect class="BoundingBox" stroke="none" fill="none" x="4435" y="10445" width="143" height="170"/>
        <path fill="rgb(230,230,230)" stroke="none" d="M 4488,0 C 4488,10596 4496,10606 4506,10614 4517,10614 4525,10614 4525,10606 L 4525,10596 4560,10479 C 4570,10479 4577,10479 4577,10472 4577,10462 4570,10453 4560,10445 L 4452,10445 C 4443,10445 4435,10445 4435,10453 4435,10462 4443,10472 4452,10479 L 4488,10479 4488,10479 Z M 4488,10596 L 4488,10596 Z"/>
       </g>
      </g>
      <g class="com.sun.star.drawing.ClosedBezierShape">
       <g id="id7">
        <rect class="BoundingBox" stroke="none" fill="none" x="4073" y="3808" width="1013" height="1480"/>
        <path fill="rgb(33,33,33)" stroke="none" d="M 5085,0 C 5085,3912 5038,3855 4981,3808 L 4178,3808 C 4121,3808 4074,3808 4074,3855 L 4074,3912 C 4074,5183 4121,5241 4178,5287 L 4981,5287 C 5038,5287 5085,5287 5085,5241 L 5085,5183 Z"/>
       </g>
      </g>
      <g class="com.sun.star.drawing.LineShape">
       <g id="id8">
        <rect class="BoundingBox" stroke="none" fill="none" x="4609" y="3319" width="23" height="548"/>
        <path fill="none" stroke="rgb(0,0,0)" stroke-width="11" stroke-linejoin="round" d="M 4625,0 L 4615,3325"/>
       </g>
      </g>
      <g class="com.sun.star.drawing.ClosedBezierShape">
       <g id="id9">
        <rect class="BoundingBox" stroke="none" fill="none" x="253" y="3794" width="1028" height="1496"/>
        <path fill="none" stroke="rgb(0,0,0)" stroke-width="16" stroke-linejoin="miter" d="M 1272,0 C 1272,3906 1225,3849 1168,3802 L 365,3802 C 308,3802 261,3802 261,3849 L 261,3906 C 261,5177 308,5235 365,5281 L 1168,5281 C 1225,5281 1272,5281 1272,5235 L 1272,5177 Z"/>
       </g>
      </g>
      <g class="com.sun.star.drawing.LineShape">
       <g id="id10">
        <rect class="BoundingBox" stroke="none" fill="none" x="766" y="3341" width="24" height="454"/>
        <path fill="none" stroke="rgb(0,0,0)" stroke-width="11" stroke-linejoin="round" d="M 783,0 L 772,3347"/>
       </g>
      </g>
      <g class="com.sun.star.drawing.ClosedBezierShape">
       <g id="id11">
        <rect class="BoundingBox" stroke="none" fill="none" x="3969" y="7374" width="1012" height="1480"/>
        <path fill="rgb(33,33,33)" stroke="none" d="M 4980,0 C 4980,7478 4933,7421 4876,7374 L 4073,7374 C 4016,7374 3969,7374 3969,7421 L 3969,7478 C 3969,8749 4016,8807 4073,8853 L 4876,8853 C 4933,8853 4980,8853 4980,8807 L 4980,8749 Z"/>
       </g>
      </g>
      <g class="com.sun.star.drawing.LineShape">
       <g id="id12">
        <rect class="BoundingBox" stroke="none" fill="none" x="4504" y="6884" width="23" height="548"/>
        <path fill="none" stroke="rgb(0,0,0)" stroke-width="11" stroke-linejoin="round" d="M 4520,0 L 4510,6890"/>
       </g>
      </g>
      <g class="com.sun.star.drawing.ClosedBezierShape">
       <g id="id13">
        <rect class="BoundingBox" stroke="none" fill="none" x="249" y="7360" width="1028" height="1496"/>
        <path fill="none" stroke="rgb(0,0,0)" stroke-width="16" stroke-linejoin="miter" d="M 1268,0 C 1268,7472 1221,7415 1164,7368 L 361,7368 C 304,7368 257,7368 257,7415 L 257,7472 C 257,8743 304,8801 361,8847 L 1164,8847 C 1221,8847 1268,8847 1268,8801 L 1268,8743 Z"/>
       </g>
      </g>
      <g class="com.sun.star.drawing.LineShape">
       <g id="id14">
        <rect class="BoundingBox" stroke="none" fill="none" x="761" y="6907" width="24" height="454"/>
        <path fill="none" stroke="rgb(0,0,0)" stroke-width="11" stroke-linejoin="round" d="M 778,0 L 767,6913"/>
       </g>
      </g>
      <g class="com.sun.star.drawing.ClosedBezierShape">
       <g id="id15">
        <rect class="BoundingBox" stroke="none" fill="none" x="249" y="10872" width="1028" height="1496"/>
        <path fill="none" stroke="rgb(0,0,0)" stroke-width="16" stroke-linejoin="miter" d="M 1268,0 C 1268,10984 1221,10927 1164,10880 L 361,10880 C 304,10880 257,10880 257,10927 L 257,10984 C 257,12255 304,12313 361,12359 L 1164,12359 C 1221,12359 1268,12359 1268,12313 L 1268,12255 Z"/>
       </g>
      </g>
      <g class="com.sun.star.drawing.LineShape">
       <g id="id16">
        <rect class="BoundingBox" stroke="none" fill="none" x="761" y="10419" width="24" height="454"/>
        <path fill="none" stroke="rgb(0,0,0)" stroke-width="11" stroke-linejoin="round" d="M 778,0 L 767,10425"/>
       </g>
      </g>
      <g class="com.sun.star.drawing.ClosedBezierShape">
       <g id="id17">
        <rect class="BoundingBox" stroke="none" fill="none" x="3900" y="10884" width="1012" height="1480"/>
        <path fill="rgb(33,33,33)" stroke="none" d="M 4911,0 C 4911,10988 4864,10931 4807,10884 L 4004,10884 C 3947,10884 3900,10884 3900,10931 L 3900,10988 C 3900,12259 3947,12317 4004,12363 L 4807,12363 C 4864,12363 4911,12363 4911,12317 L 4911,12259 Z"/>
       </g>
      </g>
      <g class="com.sun.star.drawing.LineShape">
       <g id="id18">
        <rect class="BoundingBox" stroke="none" fill="none" x="4435" y="10394" width="23" height="548"/>
        <path fill="none" stroke="rgb(0,0,0)" stroke-width="11" stroke-linejoin="round" d="M 4451,0 L 4441,10400"/>
       </g>
      </g>
      <g class="com.sun.star.drawing.TextShape">
       <g id="id19">
        <rect class="BoundingBox" stroke="none" fill="none" x="-5300" y="-300" width="2" height="3801"/>
       </g>
      </g>
     </g>
    </g>
   </g>
  </g>
 </g>
</svg>